<svg id="visual" viewBox="0 0 1920 300" width="1920" height="300" xmlns="http://www.w3.org/2000/svg" xmlns:xlink="http://www.w3.org/1999/xlink" version="1.1"><rect x="0" y="0" width="1920" height="300" fill="#121212"></rect><path d="M0 152L80 171.3C160 190.7 320 229.3 480 220.7C640 212 800 156 960 129.8C1120 103.7 1280 107.3 1440 117.3C1600 127.3 1760 143.7 1840 151.8L1920 160L1920 0L1840 0C1760 0 1600 0 1440 0C1280 0 1120 0 960 0C800 0 640 0 480 0C320 0 160 0 80 0L0 0Z" fill="#fff" stroke-linecap="round" stroke-linejoin="miter"></path></svg>