<svg id="visual" viewBox="0 0 1920 200" width="1920" height="200" xmlns="http://www.w3.org/2000/svg" xmlns:xlink="http://www.w3.org/1999/xlink" version="1.1"><rect x="0" y="0" width="1920" height="200" fill="#121212"></rect><path d="M0 29L45.7 43.8C91.3 58.7 182.7 88.3 274.2 103.3C365.7 118.3 457.3 118.7 548.8 110.3C640.3 102 731.7 85 823 69.5C914.3 54 1005.7 40 1097 36.2C1188.3 32.3 1279.7 38.7 1371.2 40C1462.7 41.3 1554.3 37.7 1645.8 30.2C1737.3 22.7 1828.7 11.3 1874.3 5.7L1920 0L1920 201L1874.3 201C1828.7 201 1737.3 201 1645.8 201C1554.3 201 1462.7 201 1371.2 201C1279.7 201 1188.3 201 1097 201C1005.7 201 914.3 201 823 201C731.7 201 640.3 201 548.8 201C457.3 201 365.7 201 274.2 201C182.7 201 91.3 201 45.7 201L0 201Z" fill="#fff" stroke-linecap="round" stroke-linejoin="miter"></path></svg>