<svg id="visual" viewBox="0 0 1920 100" width="1920" height="100" xmlns="http://www.w3.org/2000/svg" xmlns:xlink="http://www.w3.org/1999/xlink" version="1.1"><rect x="0" y="0" width="1920" height="100" fill="#FFFFFF"></rect><path d="M0 39L32 45.3C64 51.7 128 64.3 192 61.8C256 59.3 320 41.7 384 43.3C448 45 512 66 576 72.5C640 79 704 71 768 64C832 57 896 51 960 52.8C1024 54.7 1088 64.3 1152 66.2C1216 68 1280 62 1344 56.7C1408 51.3 1472 46.7 1536 44.3C1600 42 1664 42 1728 46C1792 50 1856 58 1888 62L1920 66L1920 101L1888 101C1856 101 1792 101 1728 101C1664 101 1600 101 1536 101C1472 101 1408 101 1344 101C1280 101 1216 101 1152 101C1088 101 1024 101 960 101C896 101 832 101 768 101C704 101 640 101 576 101C512 101 448 101 384 101C320 101 256 101 192 101C128 101 64 101 32 101L0 101Z" fill="#4b5050"></path><path d="M0 58L32 64.2C64 70.3 128 82.7 192 81.7C256 80.7 320 66.3 384 65C448 63.7 512 75.3 576 79C640 82.7 704 78.3 768 72.3C832 66.3 896 58.7 960 58C1024 57.3 1088 63.7 1152 70.5C1216 77.3 1280 84.7 1344 84.2C1408 83.7 1472 75.3 1536 73.3C1600 71.3 1664 75.7 1728 73.5C1792 71.3 1856 62.7 1888 58.3L1920 54L1920 101L1888 101C1856 101 1792 101 1728 101C1664 101 1600 101 1536 101C1472 101 1408 101 1344 101C1280 101 1216 101 1152 101C1088 101 1024 101 960 101C896 101 832 101 768 101C704 101 640 101 576 101C512 101 448 101 384 101C320 101 256 101 192 101C128 101 64 101 32 101L0 101Z" fill="#282c2c"></path></svg>