<svg id="visual" viewBox="0 0 1730 150" width="1730" height="150" xmlns="http://www.w3.org/2000/svg" xmlns:xlink="http://www.w3.org/1999/xlink" version="1.1"><rect x="0" y="0" width="1730" height="150" fill="#ffffff"></rect><path d="M0 101L32 104.2C64 107.3 128 113.7 192 111.7C256 109.7 320 99.3 384.2 90.5C448.3 81.7 512.7 74.3 576.8 70.2C641 66 705 65 769 67.5C833 70 897 76 961 81.8C1025 87.7 1089 93.3 1153.2 97.8C1217.3 102.3 1281.7 105.7 1345.8 102.7C1410 99.7 1474 90.3 1538 90.8C1602 91.3 1666 101.7 1698 106.8L1730 112L1730 0L1698 0C1666 0 1602 0 1538 0C1474 0 1410 0 1345.8 0C1281.7 0 1217.3 0 1153.2 0C1089 0 1025 0 961 0C897 0 833 0 769 0C705 0 641 0 576.8 0C512.7 0 448.3 0 384.2 0C320 0 256 0 192 0C128 0 64 0 32 0L0 0Z" fill="#575c5c"></path><path d="M0 49L32 49.5C64 50 128 51 192 47.2C256 43.3 320 34.7 384.2 32.2C448.3 29.7 512.7 33.3 576.8 36.7C641 40 705 43 769 40.8C833 38.7 897 31.3 961 32.7C1025 34 1089 44 1153.2 49C1217.3 54 1281.7 54 1345.8 49.7C1410 45.3 1474 36.7 1538 40C1602 43.3 1666 58.7 1698 66.3L1730 74L1730 0L1698 0C1666 0 1602 0 1538 0C1474 0 1410 0 1345.8 0C1281.7 0 1217.3 0 1153.2 0C1089 0 1025 0 961 0C897 0 833 0 769 0C705 0 641 0 576.8 0C512.7 0 448.3 0 384.2 0C320 0 256 0 192 0C128 0 64 0 32 0L0 0Z" fill="#282c2c"></path></svg>